<!-- Generated by IcoMoon.io -->
<svg version="1.1" xmlns="http://www.w3.org/2000/svg" width="30" height="32" viewBox="0 0 30 32">
<title>Archive-icon</title>
<path fill="current" d="M21.334 17.642h-4.185v-4.923h-4.761v4.923h-4.185l6.565 6.562 6.565-6.562zM28.783 4.891l-2.279-2.757c-0.44-0.552-1.113-0.903-1.868-0.903-0.007 0-0.014 0-0.021 0h-19.691c-0.003 0-0.006-0-0.009-0-0.763 0-1.444 0.35-1.89 0.899l-0.003 0.004-2.265 2.757c-0.47 0.555-0.756 1.279-0.756 2.070 0 0.004 0 0.009 0 0.013v-0.001 20.514c0 1.804 1.477 3.281 3.281 3.281h22.976c1.804 0 3.281-1.477 3.281-3.281v-20.514c0-0.788-0.278-1.526-0.756-2.082zM5.317 4.512h18.905l1.329 1.593h-21.546l1.312-1.593zM26.257 27.488h-22.976v-18.053h22.976v18.053z"></path>
</svg>
