<!-- Generated by IcoMoon.io -->
<svg version="1.1" xmlns="http://www.w3.org/2000/svg" width="32" height="32" viewBox="0 0 32 32">
<title>delete-archive</title>
<path fill="#828282" d="M31.181 3.965l-2.469-2.987c-0.477-0.599-1.206-0.979-2.024-0.979-0.008 0-0.015 0-0.023 0h-21.332c-0.003 0-0.006-0-0.010-0-0.826 0-1.564 0.38-2.048 0.974l-0.004 0.005-2.453 2.987c-0.509 0.601-0.819 1.386-0.819 2.242 0 0.005 0 0.010 0 0.014v-0.001 22.224c0 1.955 1.6 3.555 3.555 3.555h24.891c1.955 0 3.555-1.6 3.555-3.555v-22.224c0-0.853-0.301-1.653-0.819-2.256zM5.76 3.555h20.48l1.475 1.779h-23.413l1.459-1.779zM28.445 28.445h-24.891v-19.557h24.891v19.557zM13.421 24.888h5.157v-5.333h4.533l-7.112-7.109-7.112 7.109h4.533v5.333z"></path>
</svg>
