<!-- Generated by IcoMoon.io -->
<svg version="1.1" xmlns="http://www.w3.org/2000/svg" width="32" height="32" viewBox="0 0 32 32">
<title>info</title>
<path fill="#c0c0c0" d="M14.475 23.618h3.049v-9.143h-3.049v9.143zM16 0.761c-8.415 0.004-15.235 6.824-15.239 15.239v0c0.004 8.415 6.824 15.235 15.239 15.239h0c8.415-0.004 15.235-6.824 15.239-15.239v-0c-0.004-8.415-6.824-15.235-15.239-15.239h-0zM16 28.19c-6.729-0.009-12.181-5.461-12.19-12.189v-0.001c0.009-6.729 5.461-12.181 12.189-12.19h0.001c6.729 0.009 12.181 5.461 12.19 12.189v0.001c-0.009 6.729-5.461 12.181-12.189 12.19h-0.001zM14.475 11.429h3.049v-3.047h-3.049v3.047z"></path>
</svg>
