<!-- Generated by IcoMoon.io -->
<svg version="1.1" xmlns="http://www.w3.org/2000/svg" width="27" height="32" viewBox="0 0 27 32">
<title>calendar</title>
<path fill="#c0c0c0" d="M9.143 14.096h-3.047v3.047h3.047v-3.047zM15.239 14.096h-3.049v3.047h3.049v-3.047zM21.333 14.096h-3.047v3.047h3.047v-3.047zM24.382 3.429h-1.525v-3.047h-3.047v3.047h-12.192v-3.047h-3.047v3.047h-1.525c-1.683 0-3.047 1.364-3.047 3.047v0 21.335c0 1.683 1.364 3.047 3.047 3.047v0h21.335c1.683 0 3.047-1.364 3.047-3.047v0-21.335c-0.001-1.682-1.365-3.046-3.047-3.047h-0zM24.382 27.81h-21.335v-16.763h21.335v16.763z"></path>
</svg>
