<!-- Generated by IcoMoon.io -->
<svg version="1.1" xmlns="http://www.w3.org/2000/svg" width="35" height="32" viewBox="0 0 35 32">
<title>change-info</title>
<path fill="#828282" d="M0 25.333v6.667h6.667l19.661-19.661-6.667-6.667-19.661 19.661zM5.192 28.445h-1.637v-1.637l16.107-16.107 1.637 1.637-16.107 16.107zM31.485 4.675l-4.16-4.16c-0.316-0.318-0.754-0.515-1.238-0.515-0.009 0-0.018 0-0.027 0l0.001-0c-0.001 0-0.002 0-0.003 0-0.484 0-0.922 0.197-1.239 0.515l-3.253 3.253 6.667 6.667 3.253-3.253c0.693-0.693 0.693-1.813 0-2.507z"></path>
</svg>
