<!-- Generated by IcoMoon.io -->
<svg version="1.1" xmlns="http://www.w3.org/2000/svg" width="32" height="32" viewBox="0 0 32 32">
<title>Search-icon</title>
<path fill="#c0c0c0" d="M22.221 19.555h-1.403l-0.499-0.48c1.735-2.003 2.792-4.635 2.792-7.513 0-0.002 0-0.005 0-0.008v0c-0.002-6.38-5.174-11.552-11.555-11.552s-11.555 5.173-11.555 11.555c0 6.381 5.172 11.553 11.552 11.555h0c2.864 0 5.493-1.051 7.52-2.792l0.48 0.499v1.403l8.891 8.872 2.648-2.648-8.872-8.891zM11.555 19.555c-4.427 0-8-3.573-8-8s3.573-8 8-8 8 3.573 8 8-3.573 8-8 8z"></path>
</svg>
